<?xml version="1.0" encoding="UTF-8" standalone="no"?>
<!-- Created with Inkscape (http://www.inkscape.org/) -->

<svg
   width="600"
   height="400"
   viewBox="0 0 158.75 105.83333"
   version="1.1"
   id="svg135"
   inkscape:version="1.2.2 (732a01da63, 2022-12-09)"
   sodipodi:docname="ronstationlogo.svg"
   xmlns:inkscape="http://www.inkscape.org/namespaces/inkscape"
   xmlns:sodipodi="http://sodipodi.sourceforge.net/DTD/sodipodi-0.dtd"
   xmlns="http://www.w3.org/2000/svg"
   xmlns:svg="http://www.w3.org/2000/svg">
  <sodipodi:namedview
     id="namedview137"
     pagecolor="#ffffff"
     bordercolor="#000000"
     borderopacity="0.25"
     inkscape:showpageshadow="2"
     inkscape:pageopacity="0.0"
     inkscape:pagecheckerboard="0"
     inkscape:deskcolor="#d1d1d1"
     inkscape:document-units="mm"
     showgrid="false"
     inkscape:zoom="2.0149341"
     inkscape:cx="245.41745"
     inkscape:cy="203.97689"
     inkscape:window-width="1920"
     inkscape:window-height="1046"
     inkscape:window-x="-11"
     inkscape:window-y="-11"
     inkscape:window-maximized="1"
     inkscape:current-layer="layer1" />
  <defs
     id="defs132" />
  <g
     inkscape:label="Layer 1"
     inkscape:groupmode="layer"
     id="layer1">
    <g
       id="g1345">
      <path
         style="fill:#b7b7b7;fill-opacity:0;stroke:#000000;stroke-width:2.5;stroke-linecap:round;stroke-linejoin:round"
         d="m 1.7079183,45.618273 c 3.9693394,0 7.9386787,0 11.9080187,0"
         id="path423" />
      <path
         style="fill:#b7b7b7;fill-opacity:0;stroke:#000000;stroke-width:2.5;stroke-linecap:round;stroke-linejoin:round"
         d="m 5.2102766,50.871811 c 2.9186324,0 5.8372644,0 8.7558964,0"
         id="path425" />
      <path
         style="fill:#b7b7b7;fill-opacity:0;stroke:#000000;stroke-width:2.5;stroke-linecap:round;stroke-linejoin:round"
         d="m 8.712635,55.775114 c 1.634434,0 3.268868,0 4.903302,0"
         id="path427" />
      <path
         style="fill:#b7b7b7;fill-opacity:0;stroke:#000000;stroke-width:2.5;stroke-linecap:round;stroke-linejoin:round"
         d="m 18.12094,64.473778 c 0.143317,-0.466561 0.169038,-0.976501 0.262622,-1.444422 0.114938,-0.574688 0.382681,-1.13679 0.525245,-1.707046 0.0765,-0.305996 0.07762,-1.133928 0,-1.444421 -0.02374,-0.09495 -0.112117,-0.166651 -0.131312,-0.262623 -0.09259,-0.462958 0.09259,-0.981467 0,-1.444424 -0.131446,-0.657236 -0.131175,-1.312431 -0.262622,-1.969667 -0.126261,-0.631304 0.126261,-1.338363 0,-1.969667 -0.0817,-0.408487 -0.131311,-0.631412 -0.131311,-1.050488 0,-2.000208 -0.06149,-3.964342 0.262622,-5.909003 0.07808,-0.468461 -0.07808,-0.975961 0,-1.444424 0.03669,-0.220149 0.103629,-0.435091 0.131311,-0.656556 0.168548,-1.348382 0,-3.053778 0,-4.464579 0,-0.250835 -0.04008,-2.848768 0,-2.888845 0.1065,-0.1065 3.316341,0.07405 3.545402,0.131313 0.845988,0.211495 1.933571,1.136679 2.494911,1.838354 0.06114,0.07643 0.06211,0.193416 0.131313,0.262623 0.06921,0.06921 0.21885,0.04377 0.26262,0.131312 0.05872,0.117449 0,0.262621 0,0.393933 0.08754,0.17508 0.165505,0.355288 0.262623,0.525246 0.153474,0.268578 0.559691,0.628578 0.656555,0.919175 0.09323,0.279699 0.07069,0.878682 0.131313,1.181802 0.04622,0.231134 0.216395,0.425423 0.262623,0.656555 0.01717,0.08584 -0.02768,0.179576 0,0.262623 0.01958,0.05872 0.111736,0.07259 0.13131,0.13131 0.138893,0.416682 -0.430374,2.067999 -0.525246,2.494912 -0.04826,0.217162 -0.404934,1.646891 -0.525242,1.707047 -0.188524,0.09426 -0.425734,0.336227 -0.656556,0.393933 -0.212318,0.05308 -0.441955,-0.04292 -0.656556,0 -0.191947,0.03839 -0.339543,0.200721 -0.525245,0.262623 -0.196967,0.06566 -0.131312,-0.131313 -0.393934,0 -0.03915,0.01958 0.03095,0.100359 0,0.13131 -0.131311,0.131312 -0.656556,-0.13131 -0.787867,0 -0.03095,0.03095 0.03915,0.111736 0,0.131312 -0.0783,0.03915 -0.179574,-0.02768 -0.262622,0 -0.288431,0.09614 -0.523677,0.39315 -0.787867,0.525243 -0.406879,0.203441 -0.662505,0.199943 -1.05049,0.393936 -0.223928,0.111963 -0.88066,-0.169831 -1.050489,0 -0.03095,0.03095 0.03915,0.111736 0,0.13131 -0.193921,0.09696 -0.52866,-0.06395 -0.919178,0.13131 -0.03915,0.01958 -0.100361,-0.03095 -0.131311,0 -0.145282,0.145283 0.155646,0.471757 0.262622,0.525245 0.105049,0.05253 0.288885,-0.05252 0.393934,0 0.472259,0.23613 0.09624,0.22755 0.393933,0.525246 0.03095,0.03095 0.100361,-0.03095 0.131311,0 0.03095,0.03095 -0.03095,0.100359 0,0.13131 0.06921,0.06921 0.193416,0.06211 0.262623,0.131313 0.03095,0.03095 -0.02428,0.09489 0,0.13131 0.319232,0.478848 1.236859,1.875062 1.575734,2.100979 0.15384,0.102561 0.505559,0.111625 0.656555,0.26262 0.03095,0.03095 -0.03095,0.100362 0,0.131313 0.03095,0.03095 0.100361,-0.03095 0.131312,0 0.331679,0.331679 0.05046,0.151374 0.131311,0.393933 0.03095,0.09285 0.112116,0.16665 0.131311,0.262623 0.03434,0.17168 -0.123801,0.401441 0,0.525245 0.03095,0.03095 0.100361,-0.03095 0.131311,0 0.192913,0.192913 -0.07071,1.16159 0,1.444421 0.02374,0.09495 0.115221,0.166082 0.131311,0.262623 0.02878,0.172699 -0.04246,0.355391 0,0.525246 0.09904,0.396163 0.823206,1.571918 1.05049,1.969667 0.06276,0.109828 0.349663,0.479475 0.393933,0.656555 0.05107,0.204266 -0.04131,0.450001 0,0.656556 0.06966,0.348324 0.300357,0.591661 0.393932,0.919178 0.06132,0.214598 0.07718,0.440034 0.131313,0.656556 0.09307,0.372282 0.532723,1.969667 0.919179,1.969667"
         id="path1161" />
      <path
         style="fill:#b7b7b7;fill-opacity:0;stroke:#000000;stroke-width:2.5;stroke-linecap:round;stroke-linejoin:round"
         d="m 34.272212,65.392956 c -0.329073,-0.228354 -1.111165,0.222173 -1.444424,0 -0.866955,-0.577969 -1.83951,-1.842979 -2.100977,-2.888845 -0.07012,-0.280482 0.09137,-0.645059 0,-0.919178 -0.01958,-0.05873 -0.103629,-0.07595 -0.131313,-0.13131 -0.192016,-0.384038 0.08109,-1.170316 0,-1.575734 -0.301445,-1.507231 -0.13131,-3.181268 -0.13131,-4.727202 0,-1.30718 -0.144989,-2.514053 -0.262622,-3.808024 -0.0503,-0.553307 0.07836,-1.158531 0,-1.707046 -0.0088,-0.06128 -0.103627,-0.07594 -0.13131,-0.131311 -0.04974,-0.09947 0.02724,-0.284956 0,-0.393932 -0.05717,-0.228674 -0.216398,-0.425424 -0.262623,-0.656556 -0.04058,-0.202882 0,-0.712158 0,-0.919178 0,-0.420683 0.03774,-3.057896 0.13131,-3.151468 0.03095,-0.03095 0.11747,0.04152 0.131313,0 0.08419,-0.252582 0.06674,-0.529572 0.13131,-0.787869 0.04246,-0.169851 -0.03433,-0.353562 0,-0.525242 0.02387,-0.119285 0.25645,-0.903751 0.262622,-0.919179 0.09918,-0.247951 0.40453,-0.546433 0.525246,-0.787868 0.229193,-0.458388 0.452025,-0.90405 0.656556,-1.313111 0.273243,-0.546487 -0.0091,0.140377 0.262622,-0.13131 0.247222,-0.247224 0.409332,-0.671957 0.656556,-0.919179 0.03095,-0.03095 0.100359,0.03095 0.13131,0 0.168532,-0.168531 0.09409,-0.619336 0.262623,-0.787868 0.09787,-0.09787 0.296061,-0.03343 0.393933,-0.13131 0.03095,-0.03095 -0.03915,-0.111736 0,-0.13131 0.200099,-0.10005 1.550929,0 1.838356,0 0.584804,0 1.086517,-0.01161 1.444424,0.525243 0.04539,0.06809 0.07837,0.340992 0.13131,0.393935 0.03095,0.03095 0.100362,-0.03095 0.13131,0 0.08842,0.08842 0.42504,0.850075 0.525246,1.050489 0.03915,0.0783 -0.02768,0.179572 0,0.262622 0.17109,0.513271 0.155861,1.041932 0.262623,1.575734 0.0532,0.265997 0.19658,0.523701 0.262622,0.787866 0.148207,0.592833 0,1.96692 0,2.626222 0,1.882127 0,3.764254 0,5.646381 0,1.882126 0,3.764253 0,5.64638 0,0.776078 0.151948,1.735169 0,2.494912 -0.01214,0.0607 -0.1163,0.07126 -0.131312,0.13131 -0.0637,0.254783 0.0515,0.530347 0,0.787869 -0.01918,0.09597 -0.107572,0.167671 -0.13131,0.262622 -0.04246,0.169852 0.04246,0.355389 0,0.525243 -0.07793,0.311706 -0.184698,0.607476 -0.262623,0.919179 -0.05967,0.238672 0.04759,0.549904 0,0.787868 -0.03839,0.191945 -0.124209,0.386829 -0.262623,0.525243 -0.0619,0.0619 -0.223472,-0.0783 -0.262623,0 -1.53e-4,2.64e-4 -0.520644,1.290113 -0.525243,1.313111 -0.01717,0.08584 0.03915,0.184325 0,0.262623 -0.01958,0.03915 -0.100361,-0.03095 -0.131312,0 -0.03095,0.03095 0.03095,0.100361 0,0.131312 -0.08754,0.08754 -0.437703,-0.08754 -0.525243,0 -0.03095,0.03095 0.02625,0.0963 0,0.131311 -0.461955,0.615936 -0.725665,0.512804 -1.444424,0.656555 z"
         id="path1163" />
      <path
         style="fill:#b7b7b7;fill-opacity:0;stroke:#000000;stroke-width:2.5;stroke-linecap:round;stroke-linejoin:round"
         d="m 41.888259,66.443447 c 0.195006,-1.728422 -0.241128,-3.958492 0,-5.64638 0.0088,-0.06128 0.121134,-0.07025 0.13131,-0.131313 0.07574,-0.454443 -0.112003,-0.996402 0,-1.444421 0.169365,-0.677452 0.275915,-1.392862 0.393936,-2.10098 0.08756,-0.525372 0,-1.179877 0,-1.707044 0,-1.313111 0,-2.626225 0,-3.939336 0,-2.566974 0.151788,-5.199462 -0.131313,-7.747357 -0.167899,-1.511096 -0.13131,-3.055673 -0.13131,-4.595892 0,-0.109786 -2.65e-4,-1.050488 -0.131313,-1.050488 -0.138411,0 0.06941,0.270132 0.131313,0.393933 0.107262,0.214527 0.323765,0.839988 0.393933,1.050491 0.02768,0.08305 -0.01717,0.176781 0,0.26262 0.13163,0.658146 0.378391,1.308822 0.525245,1.969669 0.188857,0.849861 0.54869,1.657795 0.787866,2.49491 0.05249,0.183727 -0.08505,0.48645 0,0.656558 0.157721,0.315442 0.171773,0.687091 0.262623,1.050489 0.07704,0.308152 0.275121,0.622149 0.393932,0.919178 0.390597,0.976487 0.533078,2.0549 0.919179,3.020155 0.02299,0.05748 0.116297,0.07126 0.131312,0.131313 0.03185,0.127389 -0.02574,0.265171 0,0.393933 0.15843,0.792146 0.06246,-0.106469 0.262623,0.393933 0.464177,1.160446 0.747797,2.414772 1.313111,3.5454 0.230241,0.460481 0.657641,0.923518 0.787866,1.444424 0.0637,0.254781 -0.08305,0.538721 0,0.787866 0.08051,0.24152 0.298723,0.633545 0.393933,0.919178 0.02768,0.08305 -0.03915,0.184325 0,0.262623 0.02768,0.05537 0.08754,0.08754 0.131313,0.131313 0.04377,0.08754 0.09496,0.171749 0.13131,0.26262 0.148053,0.370131 0.114572,0.68036 0.262622,1.050491 0.182925,0.457311 0.484442,0.882827 0.656556,1.313111 0.608973,1.522431 -0.09009,-0.09774 0.131313,0.787866 0.264049,1.056198 -0.0043,-0.273468 0.26262,0.393935 0.06703,0.167561 0.06429,0.357683 0.131313,0.525243 0.09096,0.227407 0.335645,0.23381 0.393932,0.525246 0.02574,0.128762 -0.03185,0.266544 0,0.393933 0.06028,0.24113 0.447355,0.685509 0.525246,0.919178 0.02768,0.08305 -0.02768,0.179575 0,0.262623 0.01958,0.05872 0.103627,0.07595 0.13131,0.13131 0.122301,0.244604 0.145055,0.552733 0.262623,0.787868 0.05252,0.105048 -0.05253,0.288885 0,0.393933 0.05163,0.103264 0.20225,0.464873 0.262623,0.525245 0.03095,0.03095 0.111736,-0.03915 0.13131,0 0.0044,0.0087 0.01508,0.77279 0.262622,0.525243 0.09844,-0.09844 -0.02516,-0.949841 0,-1.050488 0.04748,-0.189902 0.208847,-0.337029 0.262623,-0.525246 0.159123,-0.556934 0,-2.820344 0,-3.5454 0,-0.686361 -0.146648,-2.433572 0,-3.020156 0.015,-0.06005 0.116298,-0.07126 0.13131,-0.131312 0.163611,-0.654439 0,-1.928927 0,-2.626223 0,-1.838356 0,-3.676713 0,-5.515067 0,-1.269341 0,-2.538683 0,-3.808024 0,-0.371723 -0.133985,-1.307761 0,-1.575734 0.371409,-0.742817 -0.0089,-1.784897 0.131313,-2.626225 0.187095,-1.122579 0.13131,-2.269463 0.13131,-3.414088"
         id="path1165" />
      <path
         style="fill:#b7b7b7;fill-opacity:0;stroke:#000000;stroke-width:2.5;stroke-linecap:round;stroke-linejoin:round"
         d="m 67.100002,43.989239 c 0.116658,-1.25073 -0.127719,-2.356419 -0.656555,-3.414091 -0.05128,-0.10256 -0.147886,-0.541819 -0.262623,-0.656555 -0.03095,-0.03095 -0.111736,0.03915 -0.131313,0 -0.03915,-0.0783 0.04856,-0.189786 0,-0.262623 -0.108579,-0.162872 -0.357391,-0.161912 -0.525243,-0.262623 -1.497872,-0.99858 0.591508,0.289129 -0.787868,-0.262623 -0.323493,-0.129397 -0.558726,-0.536403 -0.919178,-0.656555 -0.790147,-0.263382 -1.785337,-0.13131 -2.626223,-0.13131 -0.252767,0 -0.855559,-0.129956 -1.050488,0 -0.672166,0.448109 -1.200981,0.900983 -1.707047,1.575734 -0.226197,0.301596 -0.05168,0.338045 -0.13131,0.656555 -0.04719,0.188757 -0.446021,1.285976 -0.525245,1.444421 -0.02768,0.05537 -0.116298,0.07126 -0.13131,0.131313 -0.102659,0.410634 0.08301,0.898089 0,1.313111 -0.110863,0.554308 -0.294577,2.136426 -0.131313,2.626223 0.03095,0.09285 0.115221,0.166081 0.131313,0.262623 0.10873,0.652383 -5.3e-4,0.918165 0.262622,1.575733 0.05861,0.146529 0.212715,0.244216 0.26262,0.393933 0.02768,0.08305 -0.02122,0.177697 0,0.262623 0.131086,0.524338 0.620649,1.289103 0.919179,1.707047 0.261951,0.366728 0.635421,0.69579 0.919178,1.050488 0.256688,0.32086 0.505328,0.767948 0.787868,1.050489 0.67105,0.671049 -0.183144,-0.550585 0.525243,0.393932 0.24311,0.324147 0.476888,0.783937 0.787869,1.050492 0.347101,0.297516 0.843729,0.449794 1.181801,0.787865 0.138414,0.138414 0.145174,0.368647 0.26262,0.525246 0.349657,0.466206 0.85929,0.829341 1.181801,1.313111 0.108582,0.162872 0.145174,0.368646 0.262623,0.525245 0.160388,0.21385 0.404669,0.415407 0.525245,0.656556 0.182126,0.364252 0.301305,0.845891 0.525243,1.181799 0.02429,0.03642 0.107032,-0.03642 0.131313,0 0.184076,0.276116 0.403878,1.211635 0.525243,1.575733 0.02768,0.08305 -0.03915,0.184325 0,0.262623 0.02768,0.05537 0.1163,0.07126 0.131313,0.131313 0.08687,0.347464 0.08022,2.487716 0,2.888845 -0.06068,0.303411 -0.19194,0.505137 -0.262623,0.787866 -0.03819,0.152768 0.05072,0.373086 0,0.525245 -0.102418,0.30725 -0.263946,0.659202 -0.393933,0.919179 -0.07879,0.157572 -0.315148,0.23636 -0.393933,0.393932 -0.01958,0.03915 0.03095,0.100362 0,0.131313 -0.0049,0.0049 -0.641355,0.123709 -0.656558,0.13131 -0.439357,0.219678 -0.841759,0.499438 -1.313111,0.656556 -0.233487,0.07783 -2.562548,0.065 -2.757533,0 -0.04153,-0.01384 0.03095,-0.100362 0,-0.13131 -0.02638,-0.02638 -0.523301,-0.06469 -0.656555,-0.131313 -0.546487,-0.273243 0.140374,0.0091 -0.131313,-0.262623 -0.03095,-0.03095 -0.09216,0.01958 -0.13131,0 -0.244107,-0.122052 -0.426686,-0.459438 -0.525246,-0.656555 -0.273243,-0.546484 0.0091,0.140377 -0.262622,-0.13131 -0.03095,-0.03095 0.03095,-0.100362 0,-0.131313 -0.03095,-0.03095 -0.10036,0.03095 -0.13131,0 -0.03095,-0.03095 0.01958,-0.09216 0,-0.13131 -0.07879,-0.157573 -0.315148,-0.23636 -0.393933,-0.393933 -0.124037,-0.248071 -0.165852,-0.691097 -0.393936,-0.919178 -0.08026,-0.08026 -0.190513,-0.0334 -0.262623,-0.393933 -0.02574,-0.128762 0.04153,-0.269362 0,-0.393936 -0.01384,-0.04152 -0.100359,0.03095 -0.13131,0 -0.04805,-0.04804 0,-1.074637 0,-1.313111"
         id="path1173" />
      <path
         style="fill:#b7b7b7;fill-opacity:0;stroke:#000000;stroke-width:2.5;stroke-linecap:round;stroke-linejoin:round"
         d="m 71.039336,38.605481 c 0.218853,0.04377 0.435613,0.09975 0.656556,0.131311 0.99542,0.142202 2.143908,0 3.151467,0 2.363603,0 4.727202,0 7.090802,0"
         id="path1175" />
      <path
         style="fill:#b7b7b7;fill-opacity:0;stroke:#000000;stroke-width:2.5;stroke-linecap:round;stroke-linejoin:round"
         d="m 76.685716,67.231313 c 0.210701,-1.421929 0.13131,-2.890891 0.13131,-4.333269 0,-0.296598 0.125296,-0.931209 0,-1.181799 -0.01958,-0.03915 -0.117469,0.04152 -0.13131,0 -0.106455,-0.319362 0.08182,-0.723206 0,-1.050491 -0.03357,-0.134281 -0.09774,-0.259651 -0.131313,-0.393933 -0.148865,-0.595463 -0.0077,-2.332788 0.131313,-2.888845 0.102989,-0.411956 -0.102989,-0.901155 0,-1.313111 0.015,-0.06005 0.10363,-0.07595 0.13131,-0.131313 0.123209,-0.246411 0,-2.423623 0,-2.888845 0,-1.269341 0,-2.538682 0,-3.808023 0,-0.322363 0.110387,-1.354963 0,-1.575734 -0.195117,-0.390237 -0.05178,-0.573313 -0.13131,-1.050489 -0.01609,-0.09654 -0.119171,-0.165505 -0.131313,-0.262622 -0.03716,-0.29727 -0.01437,-1.093632 -0.13131,-1.444422 -0.01958,-0.05872 -0.111736,-0.07259 -0.13131,-0.131312 -0.118173,-0.354518 -0.05688,-2.324272 0,-2.494913 0.03095,-0.09285 0.11747,-0.165732 0.13131,-0.262623 0.129003,-0.903009 0,-1.97591 0,-2.888845"
         id="path1193" />
      <path
         style="fill:#b7b7b7;fill-opacity:0;stroke:#000000;stroke-width:2.5;stroke-linecap:round;stroke-linejoin:round"
         d="m 94.937969,67.756558 c -0.0875,-0.525245 -0.17508,-1.050491 -0.26262,-1.575734 -0.0875,-0.306392 -0.20563,-0.605665 -0.26263,-0.919178 -0.11229,-0.617617 -0.0991,-1.184087 -0.26262,-1.838357 -0.193067,-0.772268 -0.426257,-1.571715 -0.525243,-2.363599 -0.07832,-0.626542 -0.113141,-1.240433 -0.262623,-1.838357 -0.04246,-0.169855 0.05537,-0.359148 0,-0.525246 -0.01958,-0.05872 -0.111736,-0.07258 -0.131313,-0.13131 -0.06921,-0.207621 0.02715,-0.439393 0,-0.656555 -0.109725,-0.877824 -0.222533,-1.769235 -0.393932,-2.626225 -0.06721,-0.336061 0.04851,-0.710959 0,-1.050489 -0.05707,-0.399486 -0.205553,-0.782312 -0.262623,-1.181801 -0.0718,-0.502642 -0.02191,-1.083442 -0.13131,-1.575734 -0.205896,-0.926534 -0.373502,-1.847069 -0.525246,-2.757532 0.04561,-0.267171 -0.216395,-0.425424 -0.26262,-0.656556 -0.02574,-0.128762 0.02574,-0.265173 0,-0.393935 -0.04448,-0.22238 -0.207534,-0.436198 -0.262623,-0.656556 -0.131355,-0.525415 0.01204,-1.539597 -0.131312,-1.969667 -0.01958,-0.05872 -0.116298,-0.07126 -0.13131,-0.13131 -0.03185,-0.127391 0.02159,-0.264411 0,-0.393935 -0.06107,-0.366445 -0.208659,-0.672738 -0.262623,-1.050489 -0.03095,-0.216651 0.04292,-0.441954 0,-0.656555 -0.106347,-0.531733 -0.224182,-1.066477 -0.393933,-1.575734 -0.104238,-0.312709 0.07992,-0.730803 0,-1.050489 -0.015,-0.06005 -0.111736,-0.07259 -0.131313,-0.131312 -0.108056,-0.324173 -0.13131,-1.212766 -0.13131,-1.575734"
         id="path1289" />
      <path
         style="fill:#b7b7b7;fill-opacity:0;stroke:#000000;stroke-width:2.5;stroke-linecap:round;stroke-linejoin:round"
         d="m 84.564386,67.887868 c 0.04377,-0.17508 0.07424,-0.354036 0.13131,-0.525245 0.106762,-0.320286 0.15586,-0.59889 0.262622,-0.919176 0.06566,-0.196969 -0.06566,-0.459589 0,-0.656558 0.02671,-0.08013 0.235911,-0.313799 0.262623,-0.393933 0.103198,-0.309597 0.120531,-0.634992 0.262623,-0.919178 0.19091,-0.381823 -0.01942,-1.274273 0.13131,-1.575734 0.229526,-0.459052 0.02696,-0.922687 0.131313,-1.444421 0.01918,-0.09597 0.107571,-0.167672 0.13131,-0.262623 0.04246,-0.169855 -0.05537,-0.359148 0,-0.525246 0.01958,-0.05872 0.119171,-0.07061 0.13131,-0.13131 0.04292,-0.214603 -0.09787,-0.460809 0,-0.656555 0.204102,-0.408202 0.237066,-0.973823 0.393935,-1.444424 0.05536,-0.166098 -0.05537,-0.359148 0,-0.525243 0.01384,-0.04153 0.111736,0.03915 0.13131,0 0.173376,-0.346755 -0.09621,-0.92828 0,-1.313114 0.171662,-0.686639 0.34693,-1.387718 0.525246,-2.100977 0.01752,-0.07003 -0.04815,-0.345786 0,-0.393933 0.03095,-0.03095 0.100359,0.03095 0.13131,0 0.109532,-0.109532 0.320487,-1.413261 0.393933,-1.707046 0.09269,-0.370761 -0.09269,-0.811038 0,-1.181802 0.02373,-0.09495 0.107574,-0.167669 0.131312,-0.26262 0.06024,-0.240966 -0.0785,-0.552365 0,-0.787868 0.105249,-0.315743 0.17893,-0.584412 0.262623,-0.919178 0.09103,-0.364146 -0.118308,-0.826879 0,-1.181799 0.01958,-0.05872 0.103627,-0.07595 0.13131,-0.131313 0.179192,-0.35838 0.22505,-0.844034 0.393933,-1.181801 0.132294,-0.264588 -0.05743,-0.763323 0,-1.050488 0.01921,-0.09597 0.112117,-0.166651 0.131313,-0.262623 0.09893,-0.494683 0.102235,-0.963263 0.26262,-1.444421 0.06071,-0.182123 -0.04262,-0.486077 0,-0.656556 0.01503,-0.06005 0.103629,-0.07595 0.131313,-0.131312 0.138808,-0.277617 0.07108,-0.749319 0.13131,-1.050489 0.04377,-0.131313 0.08754,-0.262623 0.131312,-0.393933 0.04377,0 0.111737,0.03915 0.13131,0 0.03915,-0.0783 -0.02768,-0.179575 0,-0.262622 0.01958,-0.05872 0.10363,-0.07595 0.131313,-0.131313 0.06299,-0.125987 -0.0074,-0.247899 0.13131,-0.525243 0.0668,-0.133607 -0.104103,-0.552453 0,-0.656556 0.03095,-0.03095 0.100362,0.03095 0.13131,0 0.01183,-0.01183 0,-1.61123 0,-1.838356"
         id="path1297" />
      <path
         style="fill:#b7b7b7;fill-opacity:0;stroke:#000000;stroke-width:2.5;stroke-linecap:round;stroke-linejoin:round"
         d="m 87.321918,54.362818 c 1.900301,0.0699 3.638762,-0.13131 5.515071,-0.13131"
         id="path1299" />
      <path
         style="fill:#b7b7b7;fill-opacity:0;stroke:#000000;stroke-width:2.5;stroke-linecap:round;stroke-linejoin:round"
         d="m 97.432878,38.211546 c 3.039922,0.09731 6.032042,-0.13131 9.060472,-0.13131"
         id="path1301" />
      <path
         style="fill:#b7b7b7;fill-opacity:0;stroke:#000000;stroke-width:2.5;stroke-linecap:round;stroke-linejoin:round"
         d="m 102.29139,38.080236 c -0.22996,2.827806 -0.13131,5.692402 -0.13131,8.535225 0,0.753338 0.0102,1.374265 0.13131,2.10098 0.0846,0.507624 -0.0329,0.951632 0.13131,1.444421 0.15318,0.459515 0,1.543505 0,2.10098 0,1.488191 0,2.976385 0,4.464579 0,0.525245 0.0438,-0.218853 -0.13131,0.13131 -0.0391,0.0783 0.0212,0.177697 0,0.262622 -0.0567,0.226785 -0.18853,0.43428 -0.26262,0.656556 -0.0972,0.291489 -0.0607,2.979002 0,3.282781 -0.25543,0.364818 0.21515,0.335341 0.26262,0.525243 0.15728,0.629107 0,2.754899 0,3.5454 0,0.327647 -0.14296,1.552443 0,1.838357 0.19322,0.386424 0.13131,-0.203832 0.13131,0.393933"
         id="path1303" />
      <path
         style="fill:#b7b7b7;fill-opacity:0;stroke:#000000;stroke-width:2.5;stroke-linecap:round;stroke-linejoin:round"
         d="m 113.45284,37.29237 c 0.1462,2.00246 0.13131,4.012687 0.13131,6.040313 0,1.16449 -0.0372,2.286847 -0.26262,3.414088 -0.0865,0.432647 0,1.002049 0,1.444424 0,1.094259 0,2.18852 0,3.282778 0,0.791263 -0.12981,1.716024 0,2.494913 0.0594,0.356266 0.20648,0.713634 0.26262,1.050488 0.10937,0.65619 0,1.433433 0,2.100979 0,1.488194 0,2.976388 0,4.46458 0,1.851411 0.13131,3.663902 0.13131,5.51507"
         id="path1305" />
      <path
         style="fill:#b7b7b7;fill-opacity:0;stroke:#000000;stroke-width:2.5;stroke-linecap:round;stroke-linejoin:round"
         d="m 120.0184,53.706265 c 0.12531,-1.119452 0.26262,-2.043996 0.26262,-3.151468 0,-0.23228 -0.0708,-0.575551 0,-0.787868 0.0196,-0.05873 0.11174,-0.07259 0.13132,-0.13131 0.11818,-0.354542 -0.11819,-0.82726 0,-1.181802 0.0196,-0.05872 0.11629,-0.07126 0.13131,-0.13131 0.0531,-0.212317 -0.0692,-0.448934 0,-0.656555 0.0196,-0.05872 0.11173,-0.07259 0.13131,-0.131313 0.10505,-0.315145 -0.10505,-0.735343 0,-1.050488 0.13617,-0.408504 0.0405,-0.333722 0.13131,-0.787869 0.0606,-0.303101 0.19935,-0.602842 0.26262,-0.919178 0.0258,-0.128759 -0.0587,-0.276484 0,-0.393933 0.0277,-0.05536 0.11174,-0.07259 0.13131,-0.13131 0.10174,-0.305215 -0.0631,-0.734928 0,-1.050488 0.0665,-0.332492 0.2739,-1.204357 0.39393,-1.444424 0.0277,-0.05537 0.11174,-0.07259 0.13132,-0.13131 0.0554,-0.166098 -0.0554,-0.359148 0,-0.525246 0.0584,-0.175082 0.17855,-0.357108 0.26262,-0.525245 0.0392,-0.0783 -0.0391,-0.184322 0,-0.262623 0.1093,-0.218596 0.37518,-0.293891 0.52524,-0.393933 0.39755,0.324025 0.22587,-0.357174 0.26263,-0.393933 0.031,-0.03095 0.0949,0.02429 0.13131,0 0.23313,-0.155419 0.40349,-0.530024 0.65655,-0.656555 0.0391,-0.01958 0.10036,0.03095 0.13131,0 0.031,-0.03095 -0.031,-0.100362 0,-0.131313 0.0607,-0.06072 0.65661,-0.315174 0.78787,-0.393933 0.18729,-0.112374 0.43144,-0.318894 0.65656,-0.393933 0.12917,-0.04305 1.94369,-0.07864 2.10098,0 0.18108,0.09054 0.38395,0.642581 0.39393,0.656556 0.42454,0.594355 0.86863,0.530183 1.1818,1.313111 0.4029,1.007245 0.26262,2.221018 0.26262,3.282781 0,1.750814 0,3.50163 0,5.252444 0,1.504485 0.25549,5.791957 -0.26262,6.828182 -0.13582,0.271632 0,1.708909 0,2.100977 0,0.275457 -0.0806,0.402952 -0.13131,0.656555 -0.0717,0.358468 0,0.811308 0,1.181801 0,1.312699 0.0675,3.016417 -0.52525,4.201957 -0.0698,0.139657 -0.19279,0.122968 -0.26262,0.262623 -0.0196,0.03915 0.031,0.100361 0,0.131312 -0.0309,0.03095 -0.10036,-0.03095 -0.13131,0 -0.2605,0.260496 -0.13344,0.789991 -0.39393,1.050489 -0.0692,0.06921 -0.20834,0.04987 -0.26263,0.13131 -0.0485,0.07284 0.0212,0.177697 0,0.262623 -0.0308,0.123113 -0.71794,1.146841 -0.78786,1.181801 -0.11745,0.05872 -0.27649,-0.05872 -0.39394,0 -0.26825,0.134125 -0.27299,0.572473 -0.52524,0.656555 -0.40887,0.136292 -1.49737,0 -1.96967,0 -0.64542,0 -1.19189,0.05052 -1.57573,-0.525245 -0.48828,-0.732415 0.15295,0.185414 -0.13131,-0.525243 -0.0875,-0.131313 -0.17509,-0.262623 -0.26263,-0.393936 -0.0438,0 -0.10036,0.03095 -0.13131,0 -0.0488,-0.04877 -0.3136,-0.627213 -0.39393,-0.787865 -0.0525,-0.10505 0.0525,-0.288886 0,-0.393933 -0.0554,-0.110734 -0.20726,-0.151892 -0.26262,-0.262623 -0.13866,-0.277312 -0.31298,-0.857978 -0.39394,-1.181801 -0.0318,-0.127392 0.0587,-0.276484 0,-0.393933 -0.0277,-0.05537 -0.11173,-0.07259 -0.13131,-0.131313 -0.24949,-0.748471 0.2495,-1.746437 0,-2.494909 -0.0196,-0.05873 -0.11173,-0.07259 -0.13131,-0.131313 -0.12196,-0.365898 0.15065,-2.475571 0,-2.626222 -0.031,-0.03095 -0.10036,0.03095 -0.13131,0 -0.11283,-0.112832 0.0938,-3.320193 0.13131,-3.545401 z"
         id="path1307" />
      <path
         style="fill:#b7b7b7;fill-opacity:0;stroke:#000000;stroke-width:2.5;stroke-linecap:round;stroke-linejoin:round"
         d="m 132.23034,67.231313 c 0.0433,-0.740696 -0.0569,-1.492647 0,-2.23229 0.0171,-0.222528 0.10666,-0.434734 0.13131,-0.656555 0.0971,-0.874078 0.0545,-1.793849 0.26262,-2.626223 0.12295,-0.491799 -0.0835,-1.074909 0,-1.575734 0.0161,-0.09654 0.11522,-0.166081 0.13131,-0.262622 0.0432,-0.259049 0,-0.525246 0,-0.787869 0,-1.269341 0,-2.538682 0,-3.808023 0,-0.459502 -0.11483,-1.247725 0,-1.707044 0.159,-0.635977 0.13131,-0.154964 0.13131,-0.656556 0,-1.094261 0,-2.188519 0,-3.28278 0,-0.388978 -0.0943,-0.935895 0,-1.313112 0.015,-0.06005 0.11174,-0.07258 0.13132,-0.13131 0.0692,-0.207621 -0.036,-0.440682 0,-0.656555 0.22063,-1.323822 0.13131,-2.7134 0.13131,-4.070647 0,-0.707429 0.16193,-2.503744 0,-3.151468 -0.0987,-0.394832 -0.13131,-0.650184 -0.13131,-1.050488 0,-0.437705 0,-0.875408 0,-1.313111 0,-0.175083 0,-0.350166 0,-0.525246 0,-0.04377 0.0438,-0.13131 0,-0.13131 -0.0438,0 0,0.08754 0,0.13131 0,0.123786 -0.0203,0.272029 0,0.393933 -0.23403,0.410977 0.20012,0.606714 0.26262,0.919179 0.0676,0.338227 0.0633,0.710398 0.13131,1.050488 0.0689,0.3443 0.31252,0.593542 0.39393,0.919178 0.12731,0.509246 0.0302,1.070266 0.13131,1.575734 0.0543,0.271452 0.21712,0.514805 0.26262,0.787869 0.0815,0.488772 0.13827,0.946999 0.26263,1.444421 0.10283,0.411332 0.31346,0.779428 0.39393,1.181801 0.0672,0.335788 0.0478,0.716664 0.13131,1.050488 0.0773,0.30914 0.16186,0.616879 0.26262,0.919179 0.0196,0.05872 0.1163,0.07126 0.13131,0.131312 0.10294,0.411745 -0.0758,0.636252 0.13132,1.050489 0.31125,0.622496 0.30317,1.434769 0.52524,2.100979 0.0619,0.185701 0.19389,0.341961 0.26262,0.525243 0.14161,0.377606 0.0889,0.834316 0.26263,1.181801 0.0277,0.05537 0.11629,0.07126 0.13131,0.13131 0.0856,0.342353 0.0548,0.706007 0.13131,1.050492 0.0877,0.394885 0.3175,0.799647 0.39393,1.181798 0.0258,0.128762 -0.0257,0.265173 0,0.393935 0.0617,0.308719 0.31733,0.612741 0.39393,0.919179 0.0718,0.287311 0.0595,0.631865 0.13132,0.919178 0.12421,0.496861 0.53049,0.940168 0.65655,1.444421 0.14329,0.573162 0.16585,1.136828 0.39394,1.707044 0.10697,0.267441 0.31332,0.546037 0.39393,0.787869 0.0554,0.166097 -0.0554,0.359148 0,0.525245 0.0788,0.236284 0.32594,0.51588 0.39393,0.787866 0.30726,1.229042 0.35837,2.555089 0.91918,3.676713 0.0942,0.18849 0.0367,0.693254 0.26262,0.919179 0.26051,0.260506 0.12969,-1.436296 0.13132,-1.444424 0.14416,-0.720831 0.26262,-1.354389 0.26262,-2.10098 0,-1.041958 -0.11643,-2.160534 0.13131,-3.151468 0.10496,-0.419838 0,-1.173244 0,-1.575733 0,-1.138029 0,-2.27606 0,-3.414089 0,-1.001852 -0.0322,-1.908018 0.13131,-2.888845 0.1635,-0.980995 0,-2.632112 0,-3.676713 0,-0.644308 0.1267,-1.467453 0,-2.10098 -0.0192,-0.09597 -0.10036,-0.16977 -0.13131,-0.26262 -0.0404,-0.121338 -0.0687,-3.470751 0,-3.676713 0.24389,-0.731679 0.51986,-4.21272 0.13131,-4.989825"
         id="path1311" />
      <path
         style="fill:#b7b7b7;fill-opacity:0;stroke:#000000;stroke-width:2.5;stroke-linecap:round;stroke-linejoin:round"
         d="m 145.62407,45.958905 c 2.27606,0 4.55212,0 6.82818,0 0.52061,0 1.51865,0.150341 1.96967,0 0.39062,-0.130204 0.61115,-0.13131 1.05049,-0.13131"
         id="path1313" />
      <path
         style="fill:#b7b7b7;fill-opacity:0;stroke:#000000;stroke-width:2.5;stroke-linecap:round;stroke-linejoin:round"
         d="m 145.49276,50.817418 c 2.31983,0 4.63966,0 6.95949,0"
         id="path1319" />
      <path
         style="fill:#b7b7b7;fill-opacity:0;stroke:#000000;stroke-width:2.5;stroke-linecap:round;stroke-linejoin:round"
         d="m 145.75538,55.544618 c 0.35286,-0.03574 3.48419,0.06121 3.54541,0 0.031,-0.03095 -0.0415,-0.11747 0,-0.13131 0.29704,-0.09902 0.86149,0 1.1818,0"
         id="path1323" />
    </g>
  </g>
</svg>
